<?xml version="1.0" encoding="UTF-8" standalone="no"?>
<svg xmlns:dc="http://purl.org/dc/elements/1.1/" xmlns:cc="http://creativecommons.org/ns#" xmlns:rdf="http://www.w3.org/1999/02/22-rdf-syntax-ns#" xmlns:svg="http://www.w3.org/2000/svg" xmlns="http://www.w3.org/2000/svg" xmlns:sodipodi="http://sodipodi.sourceforge.net/DTD/sodipodi-0.0" xmlns:inkscape="http://www.inkscape.org/namespaces/inkscape" width="386.83936mm" height="71.720879mm" viewBox="0 0 386.83936 71.720879" version="1.1" id="svg15332">
  <defs id="defs15326"/>
  <g inkscape:label="Layer 1" inkscape:groupmode="layer" id="layer1" transform="translate(91.122058,-297.18123)">
    <g id="g15403" transform="translate(1.0000066,-1.0000049)">
      <polygon transform="matrix(0.26458333,0,0,0.26458333,-91.122058,299.18123)" id="polygon15342" points="0,258.445 50.373,258.445 50.373,65.928 50.952,65.928 79.613,258.445 118.407,258.445 147.068,65.928 147.647,65.928 147.647,258.445 198.02,258.445 198.02,0.066 121.012,0.066 99.3,153.139 98.721,153.139 77.008,0.066 0,0.066 " style="fill:#252525"/>
      <path id="path15344" d="m -33.012944,314.32677 c 0,5.17023 2.451364,10.81908 5.208587,15.51067 -6.970448,4.69159 -10.264245,11.96843 -10.264245,19.81941 0,12.83018 7.659952,19.245 16.775112,19.245 5.744633,0 9.191625,-2.39369 13.2511268,-5.36178 l 2.3746354,4.0214 H 9.4989824 L 2.1456825,354.73129 C 6.511572,349.36951 8.273697,341.90165 8.5795553,334.24196 H -3.369557 c -0.1531938,2.9681 -0.6892396,5.74463 -1.8385896,8.04228 l -6.2042144,-10.43596 c 5.9745561,-4.78738 9.4980123,-10.91486 9.4980123,-17.52124 0,-7.58164 -3.922977,-13.19901 -10.3520873,-15.14555 h -10.473002 c -6.350794,1.94654 -10.273506,7.56365 -10.273506,15.14528 z m 14.170818,41.17102 c -2.98741,0 -5.898091,-3.35148 -5.898091,-7.75573 0,-2.01083 1.148821,-4.78684 3.370262,-6.89345 l 7.276836,12.35101 c -1.148821,1.14882 -3.140605,2.29817 -4.749007,2.29817 z m 1.378744,-47.10747 c 2.374371,0 4.059502,2.01057 4.059502,4.78737 0,2.01057 -1.148821,4.59581 -4.519083,8.42565 -2.527829,-4.02113 -3.600185,-6.41508 -3.600185,-8.42565 0,-2.7768 1.685395,-4.78737 4.059766,-4.78737 z" style="fill:#252525;stroke-width:0.26458332" inkscape:connector-curvature="0"/>
      <path id="path15346" d="m 8.6554907,333.38021 c 0,25.46853 3.5234563,35.5219 19.5325993,35.5219 9.114896,0 18.077127,-4.59607 18.077127,-23.74529 v -5.07445 H 32.47778 c 0,12.92543 -0.765969,16.75527 -4.289425,16.75527 -4.366154,0 -4.825735,-4.9784 -4.825735,-23.45743 0,-18.47903 0.459581,-23.45796 4.825735,-23.45796 2.757488,0 3.906308,2.29791 3.906308,10.05311 v 3.83011 H 45.88263 V 319.497 c 0,-10.14466 -2.850092,-17.46197 -9.995429,-20.31577 H 20.126766 c -8.512175,3.38164 -11.4712753,13.57233 -11.4712753,34.19898 z" style="fill:#252525;stroke-width:0.26458332" inkscape:connector-curvature="0"/>
      <path id="path15348" d="m 50.395628,319.20992 c 0,24.22367 22.366287,17.52124 22.366287,31.02134 0,3.73433 -1.684867,6.60638 -4.595813,6.60638 -2.757487,0 -4.672277,-2.10635 -4.672277,-7.94649 v -1.62799 H 49.706388 v 2.39369 c 0,14.17082 6.587331,19.245 18.383514,19.245 9.348259,0 15.512257,-3.60918 18.055696,-11.4517 l -1.971146,10.11132 h 15.166446 l 1.455212,-11.96843 h 11.33686 l 1.45442,11.96843 h 12.76323 2.40321 12.76324 l 1.45547,-11.96843 h 11.3366 l 1.45574,11.96843 h 15.16645 L 157.60294,299.19869 H 139.67821 L 127.55183,361.398 115.42571,299.19869 H 97.502044 l -10.193338,52.28405 c 0.104246,-1.15464 0.160073,-2.36696 0.160073,-3.64464 0,-24.98989 -23.285714,-18.38351 -23.285714,-31.88387 0,-3.06388 1.378744,-6.03198 4.442619,-6.03198 2.757752,0 4.059766,3.35095 4.059766,7.37262 v 1.62745 h 13.327856 c 0,-10.86009 -2.908564,-17.19077 -9.46732,-19.74109 H 60.641617 c -6.861704,2.72177 -10.245989,9.58956 -10.245989,20.02869 z m 98.167822,-6.03223 h 0.15425 l 3.90552,29.01103 h -7.96555 z m -42.1759,0 h 0.15292 l 3.90684,29.01103 h -7.96634 z" style="fill:#252525;stroke-width:0.26458332" inkscape:connector-curvature="0"/>
      <path id="path15350" d="m 199.65396,313.49439 v -14.2957 h -35.69414 v 15.12808 h 10.72383 v 53.2347 h 14.24649 v -53.2347 h 10.5529 c -0.97684,5.00116 -1.39594,11.28766 -1.39594,19.05344 0,25.46853 3.52266,35.5219 19.53207,35.5219 9.11516,0 18.07633,-4.59607 18.07633,-23.74529 v -5.07445 h -13.78664 c 0,12.92543 -0.76703,16.75527 -4.28969,16.75527 -4.36562,0 -4.82547,-4.9784 -4.82547,-23.45743 0,-18.47903 0.45985,-23.45796 4.82547,-23.45796 2.75722,0 3.90684,2.29791 3.90684,10.05311 v 3.83011 h 13.78664 V 319.497 c 0,-10.14466 -2.84982,-17.46197 -9.99516,-20.31577 h -15.75938 c -5.12683,2.03676 -8.23992,6.54288 -9.90415,14.31316 z" style="fill:#252525;stroke-width:0.26458332" inkscape:connector-curvature="0"/>
      <polygon transform="matrix(0.26458333,0,0,0.26458333,-91.122058,299.18123)" id="polygon15352" points="1330.748,258.445 1384.598,258.445 1384.598,0.066 1330.748,0.066 1330.748,94.878 1297.748,94.878 1297.748,0.066 1243.898,0.066 1243.898,258.445 1297.748,258.445 1297.748,152.054 1330.748,152.054 " style="fill:#252525"/>
      <rect id="rect15354" height="68.362778" width="14.247283" style="fill:#252525;stroke-width:0.26458332" y="299.1987" x="279.47"/>
    </g>
  </g>
</svg>
