<?xml version="1.0" encoding="UTF-8"?>
<!DOCTYPE svg PUBLIC "-//W3C//DTD SVG 1.1//EN" "http://www.w3.org/Graphics/SVG/1.1/DTD/svg11.dtd">
<svg xmlns="http://www.w3.org/2000/svg" version="1.1" width="1867px" height="428px" style="shape-rendering:geometricPrecision; text-rendering:geometricPrecision; image-rendering:optimizeQuality; fill-rule:evenodd; clip-rule:evenodd" xmlns:xlink="http://www.w3.org/1999/xlink">
<g><path style="opacity:1" fill="#0f5a2a" d="M 1642.5,-0.5 C 1650.5,-0.5 1658.5,-0.5 1666.5,-0.5C 1666.5,-0.166667 1666.5,0.166667 1666.5,0.5C 1665.76,0.368989 1665.09,0.535656 1664.5,1C 1711.75,24.5929 1741.59,62.0929 1754,113.5C 1755,112.5 1756,111.5 1757,110.5C 1757.67,113.167 1758.33,113.167 1759,110.5C 1760,113.167 1761,113.167 1762,110.5C 1763.56,111.725 1764.73,113.225 1765.5,115C 1763.37,121.086 1760.53,127.253 1757,133.5C 1756.5,137.152 1756.33,140.818 1756.5,144.5C 1750.72,151.066 1744.72,157.4 1738.5,163.5C 1737.74,158.86 1738.9,154.86 1742,151.5C 1743.15,148.607 1743.65,145.607 1743.5,142.5C 1744.68,142.719 1745.68,142.386 1746.5,141.5C 1749.12,137.886 1750.79,133.886 1751.5,129.5C 1752.23,128.066 1753.23,126.9 1754.5,126C 1753.38,124.108 1751.72,123.275 1749.5,123.5C 1749.31,127.449 1748.81,127.449 1748,123.5C 1747.53,125.774 1746.53,127.774 1745,129.5C 1744.33,126.833 1743.67,126.833 1743,129.5C 1741.85,127.043 1740.51,127.043 1739,129.5C 1729.78,74.2944 1699.62,35.4611 1648.5,13C 1636.55,8.42816 1624.21,5.59483 1611.5,4.5C 1621.73,2.09723 1632.06,0.430559 1642.5,-0.5 Z"/></g>
<g><path style="opacity:1" fill="#125427" d="M 1666.5,0.5 C 1681.84,0.778233 1696.84,3.11157 1711.5,7.5C 1740.3,32.0778 1759.8,62.7445 1770,99.5C 1772.44,101.832 1774.61,104.332 1776.5,107C 1775.73,110.243 1774.73,113.41 1773.5,116.5C 1774.17,119.53 1774.84,122.53 1775.5,125.5C 1769.5,132.167 1763.17,138.5 1756.5,144.5C 1756.33,140.818 1756.5,137.152 1757,133.5C 1760.53,127.253 1763.37,121.086 1765.5,115C 1764.73,113.225 1763.56,111.725 1762,110.5C 1761,113.167 1760,113.167 1759,110.5C 1758.33,113.167 1757.67,113.167 1757,110.5C 1756,111.5 1755,112.5 1754,113.5C 1741.59,62.0929 1711.75,24.5929 1664.5,1C 1665.09,0.535656 1665.76,0.368989 1666.5,0.5 Z"/></g>
<g><path style="opacity:1" fill="#0d5f2d" d="M 1611.5,4.5 C 1624.21,5.59483 1636.55,8.42816 1648.5,13C 1699.62,35.4611 1729.78,74.2944 1739,129.5C 1740.51,127.043 1741.85,127.043 1743,129.5C 1743.67,126.833 1744.33,126.833 1745,129.5C 1746.53,127.774 1747.53,125.774 1748,123.5C 1748.81,127.449 1749.31,127.449 1749.5,123.5C 1751.72,123.275 1753.38,124.108 1754.5,126C 1753.23,126.9 1752.23,128.066 1751.5,129.5C 1750.79,133.886 1749.12,137.886 1746.5,141.5C 1745.68,142.386 1744.68,142.719 1743.5,142.5C 1743.65,145.607 1743.15,148.607 1742,151.5C 1738.9,154.86 1737.74,158.86 1738.5,163.5C 1733.21,171.068 1727.21,178.068 1720.5,184.5C 1721.39,176.73 1724.89,170.397 1731,165.5C 1735.47,155.63 1739.63,145.63 1743.5,135.5C 1740.19,135.363 1737.35,136.363 1735,138.5C 1734.33,135.833 1733.67,135.833 1733,138.5C 1732.67,138.167 1732.33,137.833 1732,137.5C 1730.24,140.02 1728.24,142.353 1726,144.5C 1722.23,90.735 1696.39,51.9017 1648.5,28C 1620.21,16.5759 1591.21,14.4093 1561.5,21.5C 1577.13,13.0666 1593.8,7.39995 1611.5,4.5 Z"/></g>
<g><path style="opacity:1" fill="#144d24" d="M 1711.5,7.5 C 1724.87,10.9505 1737.53,15.9505 1749.5,22.5C 1771.14,50.109 1784.8,81.109 1790.5,115.5C 1785.33,118.585 1780.33,121.919 1775.5,125.5C 1774.84,122.53 1774.17,119.53 1773.5,116.5C 1774.73,113.41 1775.73,110.243 1776.5,107C 1774.61,104.332 1772.44,101.832 1770,99.5C 1759.8,62.7445 1740.3,32.0778 1711.5,7.5 Z"/></g>
<g><path style="opacity:1" fill="#0b6430" d="M 1720.5,184.5 C 1699.34,209.162 1676.34,231.996 1651.5,253C 1631.01,269.076 1608.01,280.076 1582.5,286C 1575.21,287.186 1567.88,287.686 1560.5,287.5C 1554.57,285.465 1548.57,283.299 1542.5,281C 1529.45,279.738 1516.79,276.905 1504.5,272.5C 1504.5,271.5 1504.5,270.5 1504.5,269.5C 1502.34,269.279 1500.67,268.279 1499.5,266.5C 1506.98,268.689 1514.31,271.356 1521.5,274.5C 1524.43,275.484 1527.43,275.817 1530.5,275.5C 1542.73,276.287 1555.06,277.287 1567.5,278.5C 1593.97,277.947 1618.3,270.447 1640.5,256C 1672.48,233.855 1699.15,206.688 1720.5,174.5C 1723.96,168.415 1727.29,162.249 1730.5,156C 1731.49,153.547 1731.66,151.047 1731,148.5C 1730.67,149.167 1730.33,149.833 1730,150.5C 1729.61,149.572 1728.95,148.905 1728,148.5C 1725.49,151.339 1722.32,152.839 1718.5,153C 1715.37,157.133 1711.87,160.966 1708,164.5C 1712.52,118.729 1696.69,81.8957 1660.5,54C 1627.2,32.5943 1591.87,28.5943 1554.5,42C 1503.53,66.4248 1480.36,106.925 1485,163.5C 1492.51,206.002 1516.01,235.835 1555.5,253C 1541.57,253.723 1527.74,253.223 1514,251.5C 1510.92,252.146 1507.75,252.479 1504.5,252.5C 1501.09,252.483 1498.09,251.816 1495.5,250.5C 1497.51,249.498 1499.68,248.498 1502,247.5C 1507.06,249.392 1512.23,250.559 1517.5,251C 1474.13,213.889 1458.96,167.389 1472,111.5C 1473.74,106.106 1475.58,100.773 1477.5,95.5C 1498.35,62.6512 1526.35,37.9845 1561.5,21.5C 1591.21,14.4093 1620.21,16.5759 1648.5,28C 1696.39,51.9017 1722.23,90.735 1726,144.5C 1728.24,142.353 1730.24,140.02 1732,137.5C 1732.33,137.833 1732.67,138.167 1733,138.5C 1733.67,135.833 1734.33,135.833 1735,138.5C 1737.35,136.363 1740.19,135.363 1743.5,135.5C 1739.63,145.63 1735.47,155.63 1731,165.5C 1724.89,170.397 1721.39,176.73 1720.5,184.5 Z"/></g>
<g><path style="opacity:1" fill="#174821" d="M 1749.5,22.5 C 1789.73,42.7261 1820.39,72.7261 1841.5,112.5C 1841.44,113.043 1841.11,113.376 1840.5,113.5C 1837.84,111.392 1834.84,110.059 1831.5,109.5C 1826.31,108.034 1820.97,107.367 1815.5,107.5C 1811.66,108.187 1808,109.187 1804.5,110.5C 1799.55,111.371 1794.89,113.038 1790.5,115.5C 1784.8,81.109 1771.14,50.109 1749.5,22.5 Z"/></g>
<g><path style="opacity:1" fill="#086832" d="M 1530.5,275.5 C 1547.2,276.152 1563.53,275.485 1579.5,273.5C 1582.9,273.82 1586.23,273.487 1589.5,272.5C 1601.17,268.905 1612.84,265.572 1624.5,262.5C 1624.5,261.5 1624.5,260.5 1624.5,259.5C 1627.17,259.334 1629.5,258.334 1631.5,256.5C 1637.32,250.661 1643.65,245.661 1650.5,241.5C 1653.55,240.964 1656.55,240.131 1659.5,239C 1674.66,225.339 1688.66,210.506 1701.5,194.5C 1703.51,191.981 1704.84,189.148 1705.5,186C 1708.94,182.893 1711.61,179.227 1713.5,175C 1714.52,172.213 1714.68,169.38 1714,166.5C 1711.3,171.609 1707.13,174.943 1701.5,176.5C 1700.17,177.833 1698.83,179.167 1697.5,180.5C 1697.51,179.559 1697.01,178.892 1696,178.5C 1695.1,178.743 1694.26,179.077 1693.5,179.5C 1705.39,135.223 1694.39,97.7227 1660.5,67C 1623.24,40.1291 1584.24,37.4624 1543.5,59C 1503.66,86.2075 1488.16,123.707 1497,171.5C 1507.33,210.495 1531.83,235.662 1570.5,247C 1575.1,248.286 1579.76,249.119 1584.5,249.5C 1583.05,250.302 1581.38,250.802 1579.5,251C 1580.17,251.333 1580.83,251.667 1581.5,252C 1578.52,252.498 1575.52,252.665 1572.5,252.5C 1572.33,253.822 1572.66,254.989 1573.5,256C 1546.81,256.448 1520.15,255.948 1493.5,254.5C 1493.5,255.5 1493.5,256.5 1493.5,257.5C 1490.52,257.213 1489.18,255.546 1489.5,252.5C 1490.79,251.222 1492.79,250.555 1495.5,250.5C 1498.09,251.816 1501.09,252.483 1504.5,252.5C 1507.75,252.479 1510.92,252.146 1514,251.5C 1527.74,253.223 1541.57,253.723 1555.5,253C 1516.01,235.835 1492.51,206.002 1485,163.5C 1480.36,106.925 1503.53,66.4248 1554.5,42C 1591.87,28.5943 1627.2,32.5943 1660.5,54C 1696.69,81.8957 1712.52,118.729 1708,164.5C 1711.87,160.966 1715.37,157.133 1718.5,153C 1722.32,152.839 1725.49,151.339 1728,148.5C 1728.95,148.905 1729.61,149.572 1730,150.5C 1730.33,149.833 1730.67,149.167 1731,148.5C 1731.66,151.047 1731.49,153.547 1730.5,156C 1727.29,162.249 1723.96,168.415 1720.5,174.5C 1699.15,206.688 1672.48,233.855 1640.5,256C 1618.3,270.447 1593.97,277.947 1567.5,278.5C 1555.06,277.287 1542.73,276.287 1530.5,275.5 Z"/></g>
<g><path style="opacity:1" fill="#076d34" d="M 1693.5,179.5 C 1676.14,199.031 1656.47,215.865 1634.5,230C 1619.01,239.551 1602.35,246.051 1584.5,249.5C 1579.76,249.119 1575.1,248.286 1570.5,247C 1531.83,235.662 1507.33,210.495 1497,171.5C 1488.16,123.707 1503.66,86.2075 1543.5,59C 1584.24,37.4624 1623.24,40.1291 1660.5,67C 1694.39,97.7227 1705.39,135.223 1693.5,179.5 Z"/></g>
<g><path style="opacity:1" fill="#057337" d="M 1586.5,65.5 C 1631.19,64.0586 1660.69,84.3919 1675,126.5C 1683.25,171.841 1666.75,204.341 1625.5,224C 1589.95,235.591 1559.45,227.758 1534,200.5C 1510.23,167.633 1508.9,133.966 1530,99.5C 1544.32,80.5917 1563.16,69.2583 1586.5,65.5 Z"/></g>
<g><path style="opacity:1" fill="#005129" d="M -0.5,148.5 C -0.5,129.167 -0.5,109.833 -0.5,90.5C 1.6754,86.7453 5.00873,85.0786 9.5,85.5C 14.4679,85.0639 17.9679,87.0639 20,91.5C 20.3333,109.167 20.6667,126.833 21,144.5C 22.2449,148.742 25.0782,151.242 29.5,152C 157.833,152.667 286.167,152.667 414.5,152C 418.896,151.27 421.73,148.77 423,144.5C 423.074,137.394 423.74,130.394 425,123.5C 427.306,121.112 430.139,120.112 433.5,120.5C 438.468,120.064 441.968,122.064 444,126.5C 444.839,135.22 444.505,143.887 443,152.5C 439.742,163.753 432.242,169.92 420.5,171C 288.167,171.667 155.833,171.667 23.5,171C 10.1086,169.105 2.1086,161.605 -0.5,148.5 Z"/></g>
<g><path style="opacity:1" fill="#005129" d="M 429.5,85.5 C 440.351,84.8489 445.184,89.8489 444,100.5C 440.677,106.908 435.511,109.075 428.5,107C 422.397,103.96 420.231,99.1263 422,92.5C 423.767,89.228 426.267,86.8947 429.5,85.5 Z"/></g>
<g><path style="opacity:1" fill="#005129" d="M 463.5,85.5 C 466.85,85.335 470.183,85.5017 473.5,86C 475.286,86.7845 476.786,87.9512 478,89.5C 479.267,108.123 479.934,126.79 480,145.5C 481.668,149.165 484.501,151.332 488.5,152C 616.5,152.667 744.5,152.667 872.5,152C 876.066,151.3 878.9,149.467 881,146.5C 881.151,139.104 881.818,131.771 883,124.5C 887.091,120.695 891.924,119.528 897.5,121C 899.286,121.785 900.786,122.951 902,124.5C 904.607,136.97 903.274,148.97 898,160.5C 893.149,167.009 886.649,170.509 878.5,171C 746.5,171.667 614.5,171.667 482.5,171C 470.004,169.503 462.17,162.67 459,150.5C 457.413,131.538 457.079,112.538 458,93.5C 458.49,89.8539 460.323,87.1872 463.5,85.5 Z"/></g>
<g><path style="opacity:1" fill="#005129" d="M 861.5,85.5 C 875.146,85.641 879.313,91.9743 874,104.5C 867.053,109.024 860.72,108.358 855,102.5C 852.171,94.837 854.338,89.1703 861.5,85.5 Z"/></g>
<g><path style="opacity:1" fill="#005129" d="M 888.5,85.5 C 899.845,85.3305 904.345,90.6638 902,101.5C 896.963,107.99 890.796,109.156 883.5,105C 877.735,96.559 879.402,90.059 888.5,85.5 Z"/></g>
<g><path style="opacity:1" fill="#005129" d="M 944.5,85.5 C 994.168,85.3333 1043.83,85.5 1093.5,86C 1118.53,89.4992 1131.53,103.999 1132.5,129.5C 1132.62,156.479 1119.28,170.646 1092.5,172C 1035.79,172.984 979.122,172.65 922.5,171C 920.714,170.215 919.214,169.049 918,167.5C 917.022,163.1 917.522,158.933 919.5,155C 921.087,154.138 922.754,153.471 924.5,153C 980.833,152.667 1037.17,152.333 1093.5,152C 1105.44,149.175 1111.1,141.508 1110.5,129C 1110.21,116.722 1104.21,109.055 1092.5,106C 1042.17,105.333 991.833,105.333 941.5,106C 938.651,108.559 937.817,111.726 939,115.5C 940.319,117.487 942.152,118.654 944.5,119C 977.5,119.333 1010.5,119.667 1043.5,120C 1045.29,120.785 1046.79,121.951 1048,123.5C 1048.67,127.167 1048.67,130.833 1048,134.5C 1046.79,136.049 1045.29,137.215 1043.5,138C 1008.13,138.967 972.794,138.633 937.5,137C 918.362,129.556 912.862,116.389 921,97.5C 927.487,90.6741 935.32,86.6741 944.5,85.5 Z"/></g>
<g><path style="opacity:1" fill="#005129" d="M 1345.5,85.5 C 1351.8,84.3137 1356.63,86.3137 1360,91.5C 1360.17,100.833 1360.33,110.167 1360.5,119.5C 1360.61,130.547 1360.11,141.547 1359,152.5C 1355.3,163.783 1347.46,169.95 1335.5,171C 1273.17,171.667 1210.83,171.667 1148.5,171C 1144.63,167.34 1143.47,162.84 1145,157.5C 1145.93,154.898 1147.77,153.398 1150.5,153C 1211.56,152.989 1272.56,152.322 1333.5,151C 1336.38,149.749 1338.21,147.583 1339,144.5C 1339.33,126.5 1339.67,108.5 1340,90.5C 1341.41,88.2563 1343.24,86.5897 1345.5,85.5 Z"/></g>
<g><path style="opacity:1" fill="#03793a" d="M 1587.5,88.5 C 1622.93,86.9558 1645.1,103.289 1654,137.5C 1657,169.51 1643.67,191.51 1614,203.5C 1580.86,211.262 1556.86,199.929 1542,169.5C 1532.62,139.631 1540.46,115.464 1565.5,97C 1572.61,93.248 1579.94,90.4147 1587.5,88.5 Z"/></g>
<g><path style="opacity:1" fill="#0d602d" d="M 1477.5,95.5 C 1475.58,100.773 1473.74,106.106 1472,111.5C 1458.96,167.389 1474.13,213.889 1517.5,251C 1512.23,250.559 1507.06,249.392 1502,247.5C 1499.68,248.498 1497.51,249.498 1495.5,250.5C 1492.79,250.555 1490.79,251.222 1489.5,252.5C 1489.18,255.546 1490.52,257.213 1493.5,257.5C 1495.2,260.72 1497.2,263.72 1499.5,266.5C 1496.66,266.083 1493.99,265.083 1491.5,263.5C 1490.15,262.476 1489.48,261.143 1489.5,259.5C 1487.1,259.607 1485.26,258.607 1484,256.5C 1481.38,253.161 1479.54,249.494 1478.5,245.5C 1480.12,245.64 1481.29,244.973 1482,243.5C 1482.33,244.167 1482.67,244.833 1483,245.5C 1483.33,244.167 1483.67,242.833 1484,241.5C 1485.6,243.036 1487.43,243.536 1489.5,243C 1465.16,214.823 1453.16,181.989 1453.5,144.5C 1458.85,126.744 1466.85,110.411 1477.5,95.5 Z"/></g>
<g><path style="opacity:1" fill="#b7c4ae" d="M 1815.5,107.5 C 1820.97,107.367 1826.31,108.034 1831.5,109.5C 1836.11,118.378 1840.44,127.378 1844.5,136.5C 1839.83,136.5 1835.17,136.5 1830.5,136.5C 1826.27,126.362 1821.27,116.696 1815.5,107.5 Z"/></g>
<g><path style="opacity:1" fill="#dae3d2" d="M 1815.5,107.5 C 1821.27,116.696 1826.27,126.362 1830.5,136.5C 1828.83,137.167 1827.17,137.833 1825.5,138.5C 1824.04,138.433 1822.71,138.766 1821.5,139.5C 1817.09,129.008 1811.43,119.341 1804.5,110.5C 1808,109.187 1811.66,108.187 1815.5,107.5 Z"/></g>
<g><path style="opacity:1" fill="#f5f8ec" d="M 1804.5,110.5 C 1811.43,119.341 1817.09,129.008 1821.5,139.5C 1816.32,141.363 1811.98,144.363 1808.5,148.5C 1802.6,152.945 1797.6,158.278 1793.5,164.5C 1789.09,169.648 1785.42,175.314 1782.5,181.5C 1780.05,183.629 1778.38,186.296 1777.5,189.5C 1774.33,193.833 1771.66,198.5 1769.5,203.5C 1763.99,212.508 1758.99,221.841 1754.5,231.5C 1748.41,240.677 1743.08,250.343 1738.5,260.5C 1727.1,280.743 1714.27,300.077 1700,318.5C 1693.17,326.667 1685.67,334.167 1677.5,341C 1672.21,345.472 1666.54,349.305 1660.5,352.5C 1644.99,349.889 1629.99,345.222 1615.5,338.5C 1615.17,339.833 1614.83,341.167 1614.5,342.5C 1608.28,339.766 1602.45,336.433 1597,332.5C 1597.08,333.83 1597.58,335.164 1598.5,336.5C 1596.92,338.866 1597.25,340.866 1599.5,342.5C 1597.83,342.5 1596.17,342.5 1594.5,342.5C 1596.41,345.903 1598.08,349.403 1599.5,353C 1598.03,353.71 1597.36,354.876 1597.5,356.5C 1598.98,356.238 1600.31,356.571 1601.5,357.5C 1600.72,362.113 1600.22,366.78 1600,371.5C 1599.67,371.167 1599.33,370.833 1599,370.5C 1598.52,371.448 1598.35,372.448 1598.5,373.5C 1589.99,374.412 1581.99,373.079 1574.5,369.5C 1574.5,368.167 1574.5,366.833 1574.5,365.5C 1571.69,365.174 1569.02,364.341 1566.5,363C 1561.37,359.475 1556.37,355.975 1551.5,352.5C 1551.71,351.914 1552.04,351.414 1552.5,351C 1551.03,349.684 1549.36,348.684 1547.5,348C 1545.04,343.708 1541.71,340.208 1537.5,337.5C 1531.59,329.385 1526.09,321.051 1521,312.5C 1520.52,311.552 1520.35,310.552 1520.5,309.5C 1519.17,309.5 1517.83,309.5 1516.5,309.5C 1513.57,298.698 1510.23,288.031 1506.5,277.5C 1523.95,283.791 1541.95,287.124 1560.5,287.5C 1567.88,287.686 1575.21,287.186 1582.5,286C 1608.01,280.076 1631.01,269.076 1651.5,253C 1676.34,231.996 1699.34,209.162 1720.5,184.5C 1727.21,178.068 1733.21,171.068 1738.5,163.5C 1744.72,157.4 1750.72,151.066 1756.5,144.5C 1763.17,138.5 1769.5,132.167 1775.5,125.5C 1780.33,121.919 1785.33,118.585 1790.5,115.5C 1794.89,113.038 1799.55,111.371 1804.5,110.5 Z"/></g>
<g><path style="opacity:1" fill="#96a78c" d="M 1831.5,109.5 C 1834.84,110.059 1837.84,111.392 1840.5,113.5C 1841.11,113.376 1841.44,113.043 1841.5,112.5C 1846.79,121.671 1851.12,131.338 1854.5,141.5C 1851.37,139.268 1848.04,137.601 1844.5,136.5C 1840.44,127.378 1836.11,118.378 1831.5,109.5 Z"/></g>
<g><path style="opacity:1" fill="#017e3d" d="M 1589.5,115.5 C 1614.79,114.292 1627.62,126.292 1628,151.5C 1623.45,171.372 1610.95,180.539 1590.5,179C 1571.26,173.401 1562.76,160.568 1565,140.5C 1568.69,127.643 1576.86,119.309 1589.5,115.5 Z"/></g>
<g><path style="opacity:1" fill="#164821" d="M 1830.5,136.5 C 1835.17,136.5 1839.83,136.5 1844.5,136.5C 1848.04,137.601 1851.37,139.268 1854.5,141.5C 1860.3,158.177 1864.3,175.177 1866.5,192.5C 1866.5,206.833 1866.5,221.167 1866.5,235.5C 1864.91,248.379 1862.24,261.046 1858.5,273.5C 1860.33,224.498 1849.33,179.498 1825.5,138.5C 1827.17,137.833 1828.83,137.167 1830.5,136.5 Z"/></g>
<g><path style="opacity:1" fill="#115427" d="M 1808.5,148.5 C 1809.65,150.807 1810.82,153.14 1812,155.5C 1813,154.833 1814,154.167 1815,153.5C 1816.5,156.5 1818,159.5 1819.5,162.5C 1818.91,163.799 1817.91,164.632 1816.5,165C 1842.71,223.062 1845.38,282.229 1824.5,342.5C 1811.44,360.563 1795.77,375.896 1777.5,388.5C 1821.59,323.606 1829.59,254.44 1801.5,181C 1804.21,179.136 1805.04,176.636 1804,173.5C 1802.92,171.004 1801.59,168.67 1800,166.5C 1799,167.5 1798,168.5 1797,169.5C 1795.81,167.767 1794.64,166.1 1793.5,164.5C 1797.6,158.278 1802.6,152.945 1808.5,148.5 Z"/></g>
<g><path style="opacity:1" fill="#144d23" d="M 1825.5,138.5 C 1849.33,179.498 1860.33,224.498 1858.5,273.5C 1851.65,298.87 1840.31,321.87 1824.5,342.5C 1845.38,282.229 1842.71,223.062 1816.5,165C 1817.91,164.632 1818.91,163.799 1819.5,162.5C 1818,159.5 1816.5,156.5 1815,153.5C 1814,154.167 1813,154.833 1812,155.5C 1810.82,153.14 1809.65,150.807 1808.5,148.5C 1811.98,144.363 1816.32,141.363 1821.5,139.5C 1822.71,138.766 1824.04,138.433 1825.5,138.5 Z"/></g>
<g><path style="opacity:1" fill="#047038" d="M 1650.5,241.5 C 1650.82,239.952 1651.82,239.285 1653.5,239.5C 1654.24,237.014 1655.74,235.014 1658,233.5C 1658.67,231.5 1658.67,229.5 1658,227.5C 1657.59,227.043 1657.09,226.709 1656.5,226.5C 1652.84,227.101 1649.17,227.767 1645.5,228.5C 1642.18,230.828 1638.85,233.162 1635.5,235.5C 1633.93,236.309 1632.26,236.643 1630.5,236.5C 1630.5,237.5 1630.5,238.5 1630.5,239.5C 1626.37,240.151 1622.7,241.818 1619.5,244.5C 1616.54,245.351 1613.54,246.018 1610.5,246.5C 1607.74,247.443 1605.41,248.776 1603.5,250.5C 1598.31,254.751 1592.31,256.751 1585.5,256.5C 1558.51,257.395 1531.51,257.728 1504.5,257.5C 1504.93,260.564 1505.59,263.564 1506.5,266.5C 1513.09,267.533 1519.42,269.533 1525.5,272.5C 1543.49,273.5 1561.49,273.833 1579.5,273.5C 1563.53,275.485 1547.2,276.152 1530.5,275.5C 1527.43,275.817 1524.43,275.484 1521.5,274.5C 1514.31,271.356 1506.98,268.689 1499.5,266.5C 1497.2,263.72 1495.2,260.72 1493.5,257.5C 1493.5,256.5 1493.5,255.5 1493.5,254.5C 1520.15,255.948 1546.81,256.448 1573.5,256C 1572.66,254.989 1572.33,253.822 1572.5,252.5C 1575.52,252.665 1578.52,252.498 1581.5,252C 1580.83,251.667 1580.17,251.333 1579.5,251C 1581.38,250.802 1583.05,250.302 1584.5,249.5C 1602.35,246.051 1619.01,239.551 1634.5,230C 1656.47,215.865 1676.14,199.031 1693.5,179.5C 1694.26,179.077 1695.1,178.743 1696,178.5C 1697.01,178.892 1697.51,179.559 1697.5,180.5C 1698.83,179.167 1700.17,177.833 1701.5,176.5C 1707.13,174.943 1711.3,171.609 1714,166.5C 1714.68,169.38 1714.52,172.213 1713.5,175C 1711.61,179.227 1708.94,182.893 1705.5,186C 1704.84,189.148 1703.51,191.981 1701.5,194.5C 1688.66,210.506 1674.66,225.339 1659.5,239C 1656.55,240.131 1653.55,240.964 1650.5,241.5 Z"/></g>
<g><path style="opacity:1" fill="#0e5a2a" d="M 1793.5,164.5 C 1794.64,166.1 1795.81,167.767 1797,169.5C 1798,168.5 1799,167.5 1800,166.5C 1801.59,168.67 1802.92,171.004 1804,173.5C 1805.04,176.636 1804.21,179.136 1801.5,181C 1829.59,254.44 1821.59,323.606 1777.5,388.5C 1762.37,400.068 1745.71,409.068 1727.5,415.5C 1784.73,366.644 1808.23,304.644 1798,229.5C 1796.35,219.744 1793.85,210.244 1790.5,201C 1791.79,198.978 1792.79,196.811 1793.5,194.5C 1793.73,190.801 1793.06,187.135 1791.5,183.5C 1788.97,182.108 1786.81,182.442 1785,184.5C 1784.15,183.429 1783.31,182.429 1782.5,181.5C 1785.42,175.314 1789.09,169.648 1793.5,164.5 Z"/></g>
<g><path style="opacity:1" fill="#0c5e2c" d="M 1782.5,181.5 C 1783.31,182.429 1784.15,183.429 1785,184.5C 1786.81,182.442 1788.97,182.108 1791.5,183.5C 1793.06,187.135 1793.73,190.801 1793.5,194.5C 1792.79,196.811 1791.79,198.978 1790.5,201C 1793.85,210.244 1796.35,219.744 1798,229.5C 1808.23,304.644 1784.73,366.644 1727.5,415.5C 1718.48,419.173 1709.15,421.839 1699.5,423.5C 1759.05,386.784 1790.05,333.117 1792.5,262.5C 1790.87,241.368 1788.37,220.368 1785,199.5C 1784.67,198.5 1784.33,197.5 1784,196.5C 1783.67,196.833 1783.33,197.167 1783,197.5C 1779.92,195.682 1778.09,193.015 1777.5,189.5C 1778.38,186.296 1780.05,183.629 1782.5,181.5 Z"/></g>
<g><path style="opacity:1" fill="#0b612d" d="M 1777.5,189.5 C 1778.09,193.015 1779.92,195.682 1783,197.5C 1783.33,197.167 1783.67,196.833 1784,196.5C 1784.33,197.5 1784.67,198.5 1785,199.5C 1788.37,220.368 1790.87,241.368 1792.5,262.5C 1790.05,333.117 1759.05,386.784 1699.5,423.5C 1693.43,424.978 1687.43,426.311 1681.5,427.5C 1674.83,427.5 1668.17,427.5 1661.5,427.5C 1721.89,405.275 1760.05,362.942 1776,300.5C 1778.57,288.133 1780.07,275.633 1780.5,263C 1779.38,248.891 1778.38,234.891 1777.5,221C 1777.88,218.908 1778.55,216.908 1779.5,215C 1778.5,212.787 1779.17,210.954 1781.5,209.5C 1780.9,208.205 1780.4,206.872 1780,205.5C 1778.98,206.634 1778.32,206.301 1778,204.5C 1777.58,205.672 1776.91,206.672 1776,207.5C 1775.33,206.167 1774.67,206.167 1774,207.5C 1771.84,206.845 1770.34,205.512 1769.5,203.5C 1771.66,198.5 1774.33,193.833 1777.5,189.5 Z"/></g>
<g><path style="opacity:1" fill="#0d5a2a" d="M 1453.5,144.5 C 1453.16,181.989 1465.16,214.823 1489.5,243C 1487.43,243.536 1485.6,243.036 1484,241.5C 1483.67,242.833 1483.33,244.167 1483,245.5C 1482.67,244.833 1482.33,244.167 1482,243.5C 1481.29,244.973 1480.12,245.64 1478.5,245.5C 1479.54,249.494 1481.38,253.161 1484,256.5C 1485.26,258.607 1487.1,259.607 1489.5,259.5C 1489.48,261.143 1490.15,262.476 1491.5,263.5C 1493.99,265.083 1496.66,266.083 1499.5,266.5C 1500.67,268.279 1502.34,269.279 1504.5,269.5C 1504.5,270.5 1504.5,271.5 1504.5,272.5C 1516.79,276.905 1529.45,279.738 1542.5,281C 1548.57,283.299 1554.57,285.465 1560.5,287.5C 1541.95,287.124 1523.95,283.791 1506.5,277.5C 1504.83,276.833 1503.17,276.167 1501.5,275.5C 1499.58,274.637 1497.58,273.971 1495.5,273.5C 1494.49,272.326 1493.15,271.66 1491.5,271.5C 1487.54,269.182 1483.54,266.848 1479.5,264.5C 1475.66,262.416 1472,260.083 1468.5,257.5C 1464.86,254.195 1461.19,250.862 1457.5,247.5C 1450.06,238.625 1444.73,228.625 1441.5,217.5C 1441.09,192.307 1445.09,167.973 1453.5,144.5 Z"/></g>
<g><path style="opacity:1" fill="#036e34" d="M 1764.5,257.5 C 1760.97,263.862 1758.47,270.862 1757,278.5C 1749.16,293.17 1742.16,308.17 1736,323.5C 1703.52,383.829 1653.02,409.995 1584.5,402C 1539.9,392.872 1506.9,368.372 1485.5,328.5C 1488.18,332.183 1491.52,335.183 1495.5,337.5C 1502.92,345.368 1511.25,352.035 1520.5,357.5C 1524.29,363.237 1529.63,366.737 1536.5,368C 1544.34,372.752 1552.01,377.752 1559.5,383C 1584.25,392.657 1609.75,395.157 1636,390.5C 1657.74,387.213 1676.91,378.379 1693.5,364C 1694.34,362.989 1694.67,361.822 1694.5,360.5C 1696.29,360.785 1697.95,360.452 1699.5,359.5C 1703.94,355.027 1708.27,350.361 1712.5,345.5C 1713.25,344.264 1713.58,342.93 1713.5,341.5C 1718.07,340.913 1720.07,338.246 1719.5,333.5C 1720.83,333.5 1722.17,333.5 1723.5,333.5C 1727.85,324.487 1733.02,315.82 1739,307.5C 1740.78,303.695 1741.62,299.695 1741.5,295.5C 1743.7,294.986 1745.7,293.986 1747.5,292.5C 1753.08,278.56 1758.41,264.56 1763.5,250.5C 1764.48,247.572 1764.82,244.572 1764.5,241.5C 1765.5,241.5 1766.5,241.5 1767.5,241.5C 1767.5,239.167 1767.5,236.833 1767.5,234.5C 1765.71,234.215 1764.05,234.548 1762.5,235.5C 1759.5,238.844 1757,242.511 1755,246.5C 1754.67,245.833 1754.33,245.167 1754,244.5C 1752.22,249.053 1750.22,253.387 1748,257.5C 1747.67,256.833 1747.33,256.167 1747,255.5C 1745.86,258.102 1745.03,260.769 1744.5,263.5C 1742.5,262.143 1741.33,262.81 1741,265.5C 1740.33,262.833 1739.67,262.833 1739,265.5C 1738.51,263.866 1738.34,262.199 1738.5,260.5C 1743.08,250.343 1748.41,240.677 1754.5,231.5C 1755.32,233.14 1756.15,234.807 1757,236.5C 1757.85,233.885 1759.19,231.552 1761,229.5C 1761.33,230.167 1761.67,230.833 1762,231.5C 1762.39,229.045 1763.56,227.045 1765.5,225.5C 1766.19,226.025 1766.69,226.692 1767,227.5C 1767.58,225.998 1768.42,224.665 1769.5,223.5C 1770.35,225.608 1771.02,227.774 1771.5,230C 1769.29,239.298 1766.95,248.465 1764.5,257.5 Z"/></g>
<g><path style="opacity:1" fill="#096630" d="M 1769.5,203.5 C 1770.34,205.512 1771.84,206.845 1774,207.5C 1774.67,206.167 1775.33,206.167 1776,207.5C 1776.91,206.672 1777.58,205.672 1778,204.5C 1778.32,206.301 1778.98,206.634 1780,205.5C 1780.4,206.872 1780.9,208.205 1781.5,209.5C 1779.17,210.954 1778.5,212.787 1779.5,215C 1778.55,216.908 1777.88,218.908 1777.5,221C 1778.38,234.891 1779.38,248.891 1780.5,263C 1780.07,275.633 1778.57,288.133 1776,300.5C 1760.05,362.942 1721.89,405.275 1661.5,427.5C 1650.17,427.5 1638.83,427.5 1627.5,427.5C 1611.77,425.069 1596.44,421.069 1581.5,415.5C 1642.38,423.94 1692.21,404.607 1731,357.5C 1752.43,327.709 1763.6,294.375 1764.5,257.5C 1766.95,248.465 1769.29,239.298 1771.5,230C 1771.02,227.774 1770.35,225.608 1769.5,223.5C 1768.42,224.665 1767.58,225.998 1767,227.5C 1766.69,226.692 1766.19,226.025 1765.5,225.5C 1763.56,227.045 1762.39,229.045 1762,231.5C 1761.67,230.833 1761.33,230.167 1761,229.5C 1759.19,231.552 1757.85,233.885 1757,236.5C 1756.15,234.807 1755.32,233.14 1754.5,231.5C 1758.99,221.841 1763.99,212.508 1769.5,203.5 Z"/></g>
<g><path style="opacity:1" fill="#95a78b" d="M 1441.5,217.5 C 1444.73,228.625 1450.06,238.625 1457.5,247.5C 1463.07,280.621 1475.73,310.621 1495.5,337.5C 1491.52,335.183 1488.18,332.183 1485.5,328.5C 1472.52,313.205 1461.18,296.872 1451.5,279.5C 1445.36,259.305 1442.02,238.638 1441.5,217.5 Z"/></g>
<g><path style="opacity:1" fill="#3d9058" d="M 1585.5,256.5 C 1592.31,256.751 1598.31,254.751 1603.5,250.5C 1607.55,250.824 1611.55,250.491 1615.5,249.5C 1618.4,248.557 1620.73,246.89 1622.5,244.5C 1627.63,242.341 1632.96,241.341 1638.5,241.5C 1638.19,244.635 1636.86,247.302 1634.5,249.5C 1630.02,250.914 1625.68,252.581 1621.5,254.5C 1620.49,258.53 1617.83,260.197 1613.5,259.5C 1613.5,260.5 1613.5,261.5 1613.5,262.5C 1606.56,262.613 1599.9,263.947 1593.5,266.5C 1593.5,267.5 1593.5,268.5 1593.5,269.5C 1572.55,271.637 1551.55,271.97 1530.5,270.5C 1525.49,268.818 1520.49,267.151 1515.5,265.5C 1513.9,263.821 1513.23,261.821 1513.5,259.5C 1535.5,259.667 1557.5,259.5 1579.5,259C 1581.61,258.155 1583.61,257.322 1585.5,256.5 Z"/></g>
<g><path style="opacity:1" fill="#9faf96" d="M 1457.5,247.5 C 1461.19,250.862 1464.86,254.195 1468.5,257.5C 1476.28,292.081 1492.12,322.081 1516,347.5C 1520.4,351.729 1524.56,356.062 1528.5,360.5C 1525.83,359.5 1523.17,358.5 1520.5,357.5C 1511.25,352.035 1502.92,345.368 1495.5,337.5C 1475.73,310.621 1463.07,280.621 1457.5,247.5 Z"/></g>
<g><path style="opacity:1" fill="#005129" d="M -0.5,338.5 C -0.5,318.833 -0.5,299.167 -0.5,279.5C 1.54537,267.62 8.54537,260.453 20.5,258C 85.1667,257.333 149.833,257.333 214.5,258C 217.817,259.804 219.15,262.637 218.5,266.5C 219.053,270.897 217.386,274.063 213.5,276C 150.5,276.333 87.5,276.667 24.5,277C 21.2441,278.587 19.0774,281.087 18,284.5C 17.6667,302.5 17.3333,320.5 17,338.5C 15.2809,341.92 12.4476,343.586 8.5,343.5C 4.43952,343.5 1.43952,341.833 -0.5,338.5 Z"/></g>
<g><path style="opacity:1" fill="#005129" d="M 255.5,257.5 C 311.213,257.017 366.879,257.517 422.5,259C 433.212,262.044 440.379,268.877 444,279.5C 446.875,291.425 447.209,303.425 445,315.5C 440.575,332.26 429.742,341.426 412.5,343C 362.167,343.667 311.833,343.667 261.5,343C 243.534,341.09 232.701,331.257 229,313.5C 225.568,297.52 227.901,282.52 236,268.5C 241.341,262.584 247.841,258.918 255.5,257.5 Z M 261.5,276.5 C 311.834,276.333 362.168,276.5 412.5,277C 419.049,277.884 423.549,281.384 426,287.5C 428.533,297.118 427.866,306.451 424,315.5C 418.926,321.42 412.426,324.253 404.5,324C 356.81,324.955 309.144,324.622 261.5,323C 251.03,319.093 246.03,311.426 246.5,300C 245.681,288.079 250.681,280.246 261.5,276.5 Z"/></g>
<g><path style="opacity:1" fill="#005129" d="M 460.5,257.5 C 463.85,257.335 467.183,257.502 470.5,258C 471.333,258.833 472.167,259.667 473,260.5C 474.317,266.757 474.817,273.091 474.5,279.5C 520.168,279.333 565.835,279.5 611.5,280C 617.077,280.918 619.744,284.252 619.5,290C 619.485,294.373 617.485,297.373 613.5,299C 567.168,299.5 520.835,299.667 474.5,299.5C 474.116,306.589 474.616,313.589 476,320.5C 478.344,322.774 481.178,323.941 484.5,324C 546.833,324.333 609.167,324.667 671.5,325C 676.197,330.039 676.697,335.539 673,341.5C 671.933,342.191 670.766,342.691 669.5,343C 604.473,343.975 539.473,343.642 474.5,342C 464.925,339.423 459.091,333.257 457,323.5C 455.424,303.867 455.09,284.2 456,264.5C 456.53,261.415 458.03,259.082 460.5,257.5 Z"/></g>
<g><path style="opacity:1" fill="#005129" d="M 712.5,257.5 C 770.871,257.02 829.204,257.52 887.5,259C 896.656,262.811 901.823,269.644 903,279.5C 903.667,299.167 903.667,318.833 903,338.5C 901.281,341.92 898.448,343.586 894.5,343.5C 891.613,343.373 889.113,342.373 887,340.5C 885.705,321.898 885.038,303.232 885,284.5C 883.923,281.087 881.756,278.587 878.5,277C 825.167,276.333 771.833,276.333 718.5,277C 710.333,278.5 705.5,283.333 704,291.5C 702.685,299.839 703.685,307.839 707,315.5C 712.412,321.64 719.245,324.474 727.5,324C 766.833,324.333 806.167,324.667 845.5,325C 849.793,329.473 850.626,334.639 848,340.5C 846.829,341.893 845.329,342.727 843.5,343C 801.5,343.667 759.5,343.667 717.5,343C 698.713,340.213 687.88,329.38 685,310.5C 682.904,296.492 684.904,283.159 691,270.5C 696.645,263.437 703.811,259.103 712.5,257.5 Z"/></g>
<g><path style="opacity:1" fill="#005129" d="M 933.5,257.5 C 994.204,257.019 1054.87,257.519 1115.5,259C 1124.38,262.547 1129.55,269.047 1131,278.5C 1131.67,298.5 1131.67,318.5 1131,338.5C 1127.21,343.881 1122.38,344.881 1116.5,341.5C 1115.42,340.335 1114.58,339.002 1114,337.5C 1113.67,319.5 1113.33,301.5 1113,283.5C 1112.17,280 1110,277.833 1106.5,277C 1050.5,276.333 994.5,276.333 938.5,277C 935.427,277.739 933.26,279.572 932,282.5C 931.935,301.543 931.269,320.543 930,339.5C 925.148,344.406 919.981,344.74 914.5,340.5C 913.902,339.205 913.402,337.872 913,336.5C 912.089,316.466 912.422,296.466 914,276.5C 916.46,265.871 922.96,259.538 933.5,257.5 Z"/></g>
<g><path style="opacity:1" fill="#005129" d="M 1168.5,257.5 C 1225.5,257.333 1282.5,257.5 1339.5,258C 1351.88,260.378 1358.71,267.878 1360,280.5C 1360.67,299.5 1360.67,318.5 1360,337.5C 1356.65,343.465 1351.82,344.965 1345.5,342C 1344.3,341.097 1343.47,339.931 1343,338.5C 1342.67,321.167 1342.33,303.833 1342,286.5C 1341.7,281.537 1339.2,278.371 1334.5,277C 1281.17,276.333 1227.83,276.333 1174.5,277C 1167.33,278.833 1162.83,283.333 1161,290.5C 1159.13,297.572 1159.46,304.572 1162,311.5C 1166.21,320.482 1173.37,324.649 1183.5,324C 1223.17,324.333 1262.83,324.667 1302.5,325C 1306.91,329.624 1307.57,334.79 1304.5,340.5C 1303.33,341.584 1302,342.417 1300.5,343C 1258.5,343.667 1216.5,343.667 1174.5,343C 1159.4,341.572 1149.24,333.738 1144,319.5C 1139.47,303.962 1140.14,288.629 1146,273.5C 1151.16,264.841 1158.66,259.507 1168.5,257.5 Z"/></g>
<g><path style="opacity:1" fill="#a9b9a0" d="M 1468.5,257.5 C 1472,260.083 1475.66,262.416 1479.5,264.5C 1484.38,277.855 1488.21,291.521 1491,305.5C 1504.58,329.212 1521.74,349.545 1542.5,366.5C 1537.51,365.065 1532.84,363.065 1528.5,360.5C 1524.56,356.062 1520.4,351.729 1516,347.5C 1492.12,322.081 1476.28,292.081 1468.5,257.5 Z"/></g>
<g><path style="opacity:1" fill="#258049" d="M 1650.5,241.5 C 1643.65,245.661 1637.32,250.661 1631.5,256.5C 1629.5,258.334 1627.17,259.334 1624.5,259.5C 1624.5,260.5 1624.5,261.5 1624.5,262.5C 1612.84,265.572 1601.17,268.905 1589.5,272.5C 1586.23,273.487 1582.9,273.82 1579.5,273.5C 1561.49,273.833 1543.49,273.5 1525.5,272.5C 1519.42,269.533 1513.09,267.533 1506.5,266.5C 1505.59,263.564 1504.93,260.564 1504.5,257.5C 1531.51,257.728 1558.51,257.395 1585.5,256.5C 1583.61,257.322 1581.61,258.155 1579.5,259C 1557.5,259.5 1535.5,259.667 1513.5,259.5C 1513.23,261.821 1513.9,263.821 1515.5,265.5C 1520.49,267.151 1525.49,268.818 1530.5,270.5C 1551.55,271.97 1572.55,271.637 1593.5,269.5C 1593.5,268.5 1593.5,267.5 1593.5,266.5C 1599.9,263.947 1606.56,262.613 1613.5,262.5C 1613.5,261.5 1613.5,260.5 1613.5,259.5C 1617.83,260.197 1620.49,258.53 1621.5,254.5C 1625.68,252.581 1630.02,250.914 1634.5,249.5C 1636.86,247.302 1638.19,244.635 1638.5,241.5C 1632.96,241.341 1627.63,242.341 1622.5,244.5C 1620.73,246.89 1618.4,248.557 1615.5,249.5C 1611.55,250.491 1607.55,250.824 1603.5,250.5C 1605.41,248.776 1607.74,247.443 1610.5,246.5C 1613.54,246.018 1616.54,245.351 1619.5,244.5C 1622.7,241.818 1626.37,240.151 1630.5,239.5C 1630.5,238.5 1630.5,237.5 1630.5,236.5C 1632.26,236.643 1633.93,236.309 1635.5,235.5C 1638.85,233.162 1642.18,230.828 1645.5,228.5C 1649.17,227.767 1652.84,227.101 1656.5,226.5C 1657.09,226.709 1657.59,227.043 1658,227.5C 1658.67,229.5 1658.67,231.5 1658,233.5C 1655.74,235.014 1654.24,237.014 1653.5,239.5C 1651.82,239.285 1650.82,239.952 1650.5,241.5 Z"/></g>
<g><path style="opacity:1" fill="#096b33" d="M 1764.5,257.5 C 1763.6,294.375 1752.43,327.709 1731,357.5C 1692.21,404.607 1642.38,423.94 1581.5,415.5C 1534.16,397.418 1497.33,366.752 1471,323.5C 1463.04,309.451 1456.54,294.785 1451.5,279.5C 1461.18,296.872 1472.52,313.205 1485.5,328.5C 1506.9,368.372 1539.9,392.872 1584.5,402C 1653.02,409.995 1703.52,383.829 1736,323.5C 1742.16,308.17 1749.16,293.17 1757,278.5C 1758.47,270.862 1760.97,263.862 1764.5,257.5 Z"/></g>
<g><path style="opacity:1" fill="#01773a" d="M 1738.5,260.5 C 1738.34,262.199 1738.51,263.866 1739,265.5C 1739.67,262.833 1740.33,262.833 1741,265.5C 1741.33,262.81 1742.5,262.143 1744.5,263.5C 1744.5,264.833 1744.5,266.167 1744.5,267.5C 1743.5,267.5 1742.5,267.5 1741.5,267.5C 1740.69,272.762 1738.02,277.096 1733.5,280.5C 1731.92,282.99 1730.92,285.657 1730.5,288.5C 1730.5,290.167 1730.5,291.833 1730.5,293.5C 1729.5,293.5 1728.5,293.5 1727.5,293.5C 1727.76,294.978 1727.43,296.311 1726.5,297.5C 1720.4,306.028 1714.07,314.361 1707.5,322.5C 1706.83,325.167 1706.17,327.833 1705.5,330.5C 1704.48,331.853 1703.14,332.52 1701.5,332.5C 1696.52,333.478 1693.52,336.478 1692.5,341.5C 1690.17,343.441 1687.67,345.107 1685,346.5C 1683.46,348.468 1682.29,350.635 1681.5,353C 1679.87,353.494 1678.2,353.66 1676.5,353.5C 1676.72,354.675 1676.39,355.675 1675.5,356.5C 1666.07,365.586 1655.74,373.586 1644.5,380.5C 1644.67,380.833 1644.83,381.167 1645,381.5C 1649.65,379.979 1654.49,378.979 1659.5,378.5C 1660.17,377.833 1660.83,377.167 1661.5,376.5C 1665.18,375.401 1668.85,374.401 1672.5,373.5C 1670.4,375.407 1668.07,377.241 1665.5,379C 1648.04,386.399 1630.04,388.066 1611.5,384C 1615.27,382.162 1619.27,381.162 1623.5,381C 1622.5,380.667 1621.5,380.333 1620.5,380C 1625.47,378.842 1630.47,377.842 1635.5,377C 1634.83,376.667 1634.17,376.333 1633.5,376C 1641.66,373.57 1649.66,370.737 1657.5,367.5C 1657.76,366.022 1657.43,364.689 1656.5,363.5C 1639.39,371.463 1621.39,375.13 1602.5,374.5C 1621.5,371.665 1639.5,365.499 1656.5,356C 1658.09,355.051 1659.43,353.885 1660.5,352.5C 1666.54,349.305 1672.21,345.472 1677.5,341C 1685.67,334.167 1693.17,326.667 1700,318.5C 1714.27,300.077 1727.1,280.743 1738.5,260.5 Z"/></g>
<g><path style="opacity:1" fill="#bbc8b2" d="M 1479.5,264.5 C 1483.54,266.848 1487.54,269.182 1491.5,271.5C 1492.1,276.455 1493.6,281.122 1496,285.5C 1496.33,289.5 1496.67,293.5 1497,297.5C 1500.86,305.889 1504.7,314.222 1508.5,322.5C 1509.5,322.5 1510.5,322.5 1511.5,322.5C 1511.34,324.857 1511.5,327.19 1512,329.5C 1514.67,332.833 1517.33,336.167 1520,339.5C 1525.42,345.431 1531.26,350.764 1537.5,355.5C 1542.57,360.439 1547.9,365.105 1553.5,369.5C 1549.65,369.106 1545.99,368.106 1542.5,366.5C 1521.74,349.545 1504.58,329.212 1491,305.5C 1488.21,291.521 1484.38,277.855 1479.5,264.5 Z"/></g>
<g><path style="opacity:1" fill="#cfd9c6" d="M 1491.5,271.5 C 1493.15,271.66 1494.49,272.326 1495.5,273.5C 1498.04,286.225 1501.71,298.559 1506.5,310.5C 1509.29,310.452 1511.13,311.785 1512,314.5C 1513.18,317.932 1514.35,321.265 1515.5,324.5C 1516.5,324.5 1517.5,324.5 1518.5,324.5C 1518.2,326.604 1518.53,328.604 1519.5,330.5C 1521.79,332.87 1523.62,335.536 1525,338.5C 1526.21,340.049 1527.71,341.215 1529.5,342C 1529.17,342.333 1528.83,342.667 1528.5,343C 1530.62,344.723 1533.12,346.889 1536,349.5C 1536.5,351.518 1537,353.518 1537.5,355.5C 1531.26,350.764 1525.42,345.431 1520,339.5C 1517.33,336.167 1514.67,332.833 1512,329.5C 1511.5,327.19 1511.34,324.857 1511.5,322.5C 1510.5,322.5 1509.5,322.5 1508.5,322.5C 1504.7,314.222 1500.86,305.889 1497,297.5C 1496.67,293.5 1496.33,289.5 1496,285.5C 1493.6,281.122 1492.1,276.455 1491.5,271.5 Z"/></g>
<g><path style="opacity:1" fill="#318a51" d="M 1719.5,330.5 C 1717.51,330.328 1715.84,330.995 1714.5,332.5C 1711.77,336.543 1709.1,340.543 1706.5,344.5C 1705.02,344.238 1703.69,344.571 1702.5,345.5C 1700.45,347.782 1699.45,350.449 1699.5,353.5C 1697.5,353.5 1695.5,353.5 1693.5,353.5C 1693.5,354.5 1693.5,355.5 1693.5,356.5C 1691.23,356.715 1689.06,357.382 1687,358.5C 1686.17,358.167 1685.33,357.833 1684.5,357.5C 1687.41,354.812 1690.08,351.812 1692.5,348.5C 1693.31,344.603 1695.64,342.27 1699.5,341.5C 1699.56,338.336 1700.22,335.336 1701.5,332.5C 1703.14,332.52 1704.48,331.853 1705.5,330.5C 1706.17,327.833 1706.83,325.167 1707.5,322.5C 1714.07,314.361 1720.4,306.028 1726.5,297.5C 1727.43,296.311 1727.76,294.978 1727.5,293.5C 1728.5,293.5 1729.5,293.5 1730.5,293.5C 1730.5,291.833 1730.5,290.167 1730.5,288.5C 1734.06,284.255 1737.73,279.922 1741.5,275.5C 1743.61,274.056 1745.94,273.39 1748.5,273.5C 1748.83,277.884 1748.49,282.217 1747.5,286.5C 1745.42,287.988 1744.42,289.988 1744.5,292.5C 1743.07,292.421 1741.74,292.754 1740.5,293.5C 1736.25,303.296 1731.92,312.962 1727.5,322.5C 1726.17,322.5 1724.83,322.5 1723.5,322.5C 1722.79,325.628 1721.46,328.294 1719.5,330.5 Z"/></g>
<g><path style="opacity:1" fill="#dbe3d2" d="M 1495.5,273.5 C 1497.58,273.971 1499.58,274.637 1501.5,275.5C 1501.09,281.93 1502.42,287.93 1505.5,293.5C 1504.38,297.086 1505.05,300.419 1507.5,303.5C 1508.9,303.865 1509.9,304.699 1510.5,306C 1511.69,309.546 1513.02,313.046 1514.5,316.5C 1515.52,317.853 1516.86,318.52 1518.5,318.5C 1520.9,324.853 1524.06,330.853 1528,336.5C 1528.33,336.167 1528.67,335.833 1529,335.5C 1529.49,337.134 1529.66,338.801 1529.5,340.5C 1530.83,340.5 1532.17,340.5 1533.5,340.5C 1534.69,345.36 1537.69,348.693 1542.5,350.5C 1544.4,354.404 1547.07,357.737 1550.5,360.5C 1550.29,361.086 1549.96,361.586 1549.5,362C 1553.09,364.754 1556.09,367.921 1558.5,371.5C 1556.69,370.976 1555.03,370.309 1553.5,369.5C 1547.9,365.105 1542.57,360.439 1537.5,355.5C 1537,353.518 1536.5,351.518 1536,349.5C 1533.12,346.889 1530.62,344.723 1528.5,343C 1528.83,342.667 1529.17,342.333 1529.5,342C 1527.71,341.215 1526.21,340.049 1525,338.5C 1523.62,335.536 1521.79,332.87 1519.5,330.5C 1518.53,328.604 1518.2,326.604 1518.5,324.5C 1517.5,324.5 1516.5,324.5 1515.5,324.5C 1514.35,321.265 1513.18,317.932 1512,314.5C 1511.13,311.785 1509.29,310.452 1506.5,310.5C 1501.71,298.559 1498.04,286.225 1495.5,273.5 Z"/></g>
<g><path style="opacity:1" fill="#e8eedf" d="M 1501.5,275.5 C 1503.17,276.167 1504.83,276.833 1506.5,277.5C 1510.23,288.031 1513.57,298.698 1516.5,309.5C 1517.83,309.5 1519.17,309.5 1520.5,309.5C 1520.35,310.552 1520.52,311.552 1521,312.5C 1526.09,321.051 1531.59,329.385 1537.5,337.5C 1541.71,340.208 1545.04,343.708 1547.5,348C 1549.36,348.684 1551.03,349.684 1552.5,351C 1552.04,351.414 1551.71,351.914 1551.5,352.5C 1556.37,355.975 1561.37,359.475 1566.5,363C 1569.02,364.341 1571.69,365.174 1574.5,365.5C 1574.5,366.833 1574.5,368.167 1574.5,369.5C 1581.99,373.079 1589.99,374.412 1598.5,373.5C 1598.35,372.448 1598.52,371.448 1599,370.5C 1599.33,370.833 1599.67,371.167 1600,371.5C 1600.22,366.78 1600.72,362.113 1601.5,357.5C 1600.31,356.571 1598.98,356.238 1597.5,356.5C 1597.36,354.876 1598.03,353.71 1599.5,353C 1598.08,349.403 1596.41,345.903 1594.5,342.5C 1596.17,342.5 1597.83,342.5 1599.5,342.5C 1597.25,340.866 1596.92,338.866 1598.5,336.5C 1597.58,335.164 1597.08,333.83 1597,332.5C 1602.45,336.433 1608.28,339.766 1614.5,342.5C 1614.83,341.167 1615.17,339.833 1615.5,338.5C 1629.99,345.222 1644.99,349.889 1660.5,352.5C 1659.43,353.885 1658.09,355.051 1656.5,356C 1639.5,365.499 1621.5,371.665 1602.5,374.5C 1587.71,375.076 1573.04,374.076 1558.5,371.5C 1556.09,367.921 1553.09,364.754 1549.5,362C 1549.96,361.586 1550.29,361.086 1550.5,360.5C 1547.07,357.737 1544.4,354.404 1542.5,350.5C 1537.69,348.693 1534.69,345.36 1533.5,340.5C 1532.17,340.5 1530.83,340.5 1529.5,340.5C 1529.66,338.801 1529.49,337.134 1529,335.5C 1528.67,335.833 1528.33,336.167 1528,336.5C 1524.06,330.853 1520.9,324.853 1518.5,318.5C 1516.86,318.52 1515.52,317.853 1514.5,316.5C 1513.02,313.046 1511.69,309.546 1510.5,306C 1509.9,304.699 1508.9,303.865 1507.5,303.5C 1505.05,300.419 1504.38,297.086 1505.5,293.5C 1502.42,287.93 1501.09,281.93 1501.5,275.5 Z"/></g>
<g><path style="opacity:1" fill="#198046" d="M 1719.5,330.5 C 1716.21,335.018 1712.88,339.685 1709.5,344.5C 1704.98,345.849 1702.48,348.849 1702,353.5C 1696.6,358.44 1690.43,361.774 1683.5,363.5C 1682.57,364.689 1682.24,366.022 1682.5,367.5C 1681.02,367.238 1679.69,367.571 1678.5,368.5C 1676.36,370.204 1674.36,371.87 1672.5,373.5C 1668.85,374.401 1665.18,375.401 1661.5,376.5C 1660.83,377.167 1660.17,377.833 1659.5,378.5C 1654.49,378.979 1649.65,379.979 1645,381.5C 1644.83,381.167 1644.67,380.833 1644.5,380.5C 1655.74,373.586 1666.07,365.586 1675.5,356.5C 1676.39,355.675 1676.72,354.675 1676.5,353.5C 1678.2,353.66 1679.87,353.494 1681.5,353C 1682.29,350.635 1683.46,348.468 1685,346.5C 1687.67,345.107 1690.17,343.441 1692.5,341.5C 1693.52,336.478 1696.52,333.478 1701.5,332.5C 1700.22,335.336 1699.56,338.336 1699.5,341.5C 1695.64,342.27 1693.31,344.603 1692.5,348.5C 1690.08,351.812 1687.41,354.812 1684.5,357.5C 1685.33,357.833 1686.17,358.167 1687,358.5C 1689.06,357.382 1691.23,356.715 1693.5,356.5C 1693.5,355.5 1693.5,354.5 1693.5,353.5C 1695.5,353.5 1697.5,353.5 1699.5,353.5C 1699.45,350.449 1700.45,347.782 1702.5,345.5C 1703.69,344.571 1705.02,344.238 1706.5,344.5C 1709.1,340.543 1711.77,336.543 1714.5,332.5C 1715.84,330.995 1717.51,330.328 1719.5,330.5 Z"/></g>
<g><path style="opacity:1" fill="#02743a" d="M 1520.5,357.5 C 1523.17,358.5 1525.83,359.5 1528.5,360.5C 1532.84,363.065 1537.51,365.065 1542.5,366.5C 1545.99,368.106 1549.65,369.106 1553.5,369.5C 1555.03,370.309 1556.69,370.976 1558.5,371.5C 1573.04,374.076 1587.71,375.076 1602.5,374.5C 1621.39,375.13 1639.39,371.463 1656.5,363.5C 1657.43,364.689 1657.76,366.022 1657.5,367.5C 1649.66,370.737 1641.66,373.57 1633.5,376C 1634.17,376.333 1634.83,376.667 1635.5,377C 1630.47,377.842 1625.47,378.842 1620.5,380C 1621.5,380.333 1622.5,380.667 1623.5,381C 1619.27,381.162 1615.27,382.162 1611.5,384C 1630.04,388.066 1648.04,386.399 1665.5,379C 1668.07,377.241 1670.4,375.407 1672.5,373.5C 1674.36,371.87 1676.36,370.204 1678.5,368.5C 1679.69,367.571 1681.02,367.238 1682.5,367.5C 1682.24,366.022 1682.57,364.689 1683.5,363.5C 1690.43,361.774 1696.6,358.44 1702,353.5C 1702.48,348.849 1704.98,345.849 1709.5,344.5C 1712.88,339.685 1716.21,335.018 1719.5,330.5C 1721.46,328.294 1722.79,325.628 1723.5,322.5C 1724.83,322.5 1726.17,322.5 1727.5,322.5C 1731.92,312.962 1736.25,303.296 1740.5,293.5C 1741.74,292.754 1743.07,292.421 1744.5,292.5C 1744.42,289.988 1745.42,287.988 1747.5,286.5C 1748.49,282.217 1748.83,277.884 1748.5,273.5C 1745.94,273.39 1743.61,274.056 1741.5,275.5C 1737.73,279.922 1734.06,284.255 1730.5,288.5C 1730.92,285.657 1731.92,282.99 1733.5,280.5C 1738.02,277.096 1740.69,272.762 1741.5,267.5C 1742.5,267.5 1743.5,267.5 1744.5,267.5C 1744.5,266.167 1744.5,264.833 1744.5,263.5C 1745.03,260.769 1745.86,258.102 1747,255.5C 1747.33,256.167 1747.67,256.833 1748,257.5C 1750.22,253.387 1752.22,249.053 1754,244.5C 1754.33,245.167 1754.67,245.833 1755,246.5C 1757,242.511 1759.5,238.844 1762.5,235.5C 1764.05,234.548 1765.71,234.215 1767.5,234.5C 1767.5,236.833 1767.5,239.167 1767.5,241.5C 1766.5,241.5 1765.5,241.5 1764.5,241.5C 1764.82,244.572 1764.48,247.572 1763.5,250.5C 1758.41,264.56 1753.08,278.56 1747.5,292.5C 1745.7,293.986 1743.7,294.986 1741.5,295.5C 1741.62,299.695 1740.78,303.695 1739,307.5C 1733.02,315.82 1727.85,324.487 1723.5,333.5C 1722.17,333.5 1720.83,333.5 1719.5,333.5C 1720.07,338.246 1718.07,340.913 1713.5,341.5C 1713.58,342.93 1713.25,344.264 1712.5,345.5C 1708.27,350.361 1703.94,355.027 1699.5,359.5C 1697.95,360.452 1696.29,360.785 1694.5,360.5C 1694.67,361.822 1694.34,362.989 1693.5,364C 1676.91,378.379 1657.74,387.213 1636,390.5C 1609.75,395.157 1584.25,392.657 1559.5,383C 1552.01,377.752 1544.34,372.752 1536.5,368C 1529.63,366.737 1524.29,363.237 1520.5,357.5 Z"/></g>
</svg>
