<svg viewBox="0 0 1675 580" xmlns="http://www.w3.org/2000/svg">
  <path fill="#D20A0A" d="M459.3 0H0l91.5 290.2L0 580h459.3l91.5-290L459.3 0z"/>
  <path fill="#D20A0A" d="M1215.7 0H756.4l91.5 290.2-91.5 289.8h459.3l91.5-290-91.5-290z"/>
  <path fill="#D20A0A" d="M1675 0h-459.3l91.5 290.2-91.5 289.8H1675l-91.5-290L1675 0z"/>
  <path fill="#fff" d="M167.1 120.5v216.8c0 49.2 26.6 74.8 63.1 74.8 37.5 0 63.1-25.6 63.1-74.8V120.5h-49.7v222.6c0 17.8-5.9 26.6-13.4 26.6s-13.4-8.8-13.4-26.6V120.5h-49.7zM356.4 459.5h49.7V120.5h-49.7zM86.4 120.5H36.7l-18 338.9H68l8-101.2h23.8l8 101.2h49.3L139.1 120.5H86.4zm-5.9 193.8l9.3-136.4 9.3 136.4H80.5zM924.3 459.5h49.7V120.5h-49.7zM1029.8 459.5h49.7V314.9l43.8 144.6h45.7V120.5h-49.7v141.3L1075.5 120.5h-45.7zM853.1 164.3h30.3v-43.8H803v339h80.4v-43.8h-30.3v-108h24v-43.8h-24v-99.6zM1381.4 459.5h49.7V120.5h-49.7zM1486.9 459.5h49.7V314.9l43.8 144.6h45.7V120.5h-49.7v141.3l-43.8-141.3h-45.7zM1310.2 164.3h30.3v-43.8h-80.4v339h80.4v-43.8h-30.3v-108h24v-43.8h-24v-99.6z"/>
</svg>
